HIERARCHY
ROOT Hips
{
  OFFSET 50.9425 84.1273 6.87802
  CHANNELS 6 Xposition Yposition Zposition Zrotation Xrotation Yrotation
  JOINT spine
  {
    OFFSET 0 5.95438 0.342407
    CHANNELS 3 Zrotation Xrotation Yrotation
    JOINT spine1
    {
      OFFSET 0 8.85602 0
      CHANNELS 3 Zrotation Xrotation Yrotation
      JOINT spine2
      {
        OFFSET 0 8.48567 0
        CHANNELS 3 Zrotation Xrotation Yrotation
        JOINT Neck
        {
          OFFSET 0 21.7863 1.0387
          CHANNELS 3 Zrotation Xrotation Yrotation
          JOINT Head
          {
            OFFSET 0 6.5822 0
            CHANNELS 3 Zrotation Xrotation Yrotation
            End Site
            {
              OFFSET 0 15.9326 -5.25436
            }
          }
        }
        JOINT RightShoulder
        {
          OFFSET -3.57307 9.16386 -0.497525
          CHANNELS 3 Zrotation Xrotation Yrotation
          JOINT RightArm
          {
            OFFSET 0 12.0192 0
            CHANNELS 3 Zrotation Xrotation Yrotation
            JOINT RightArmRoll
            {
              OFFSET 0 6.06755 0
              CHANNELS 3 Zrotation Xrotation Yrotation
              JOINT RightForeArm
              {
                OFFSET 0 17.6726 0
                CHANNELS 3 Zrotation Xrotation Yrotation
                JOINT RightForeArmRoll
                {
                  OFFSET 0 6.80872 0
                  CHANNELS 3 Zrotation Xrotation Yrotation
                  JOINT RightHand
                  {
                    OFFSET 0 13.6636 0
                    CHANNELS 3 Zrotation Xrotation Yrotation
                    End Site
                    {
                      OFFSET 0 0 0
                    }
                  }
                }
              }
            }
          }
        }
        JOINT LeftShoulder
        {
          OFFSET 3.57307 9.16386 -0.497525
          CHANNELS 3 Zrotation Xrotation Yrotation
          JOINT LeftArm
          {
            OFFSET 0 12.0192 0
            CHANNELS 3 Zrotation Xrotation Yrotation
            JOINT LeftArmRoll
            {
              OFFSET 0 6.06755 0
              CHANNELS 3 Zrotation Xrotation Yrotation
              JOINT LeftForeArm
              {
                OFFSET 0 17.6726 0
                CHANNELS 3 Zrotation Xrotation Yrotation
                JOINT LeftForeArmRoll
                {
                  OFFSET 0 6.80872 0
                  CHANNELS 3 Zrotation Xrotation Yrotation
                  JOINT LeftHand
                  {
                    OFFSET 0 13.6636 0
                    CHANNELS 3 Zrotation Xrotation Yrotation
                    End Site
                    {
                      OFFSET 0 0 0
                    }
                  }
                }
              }
            }
          }
        }
      }
    }
  }
  JOINT RightUpLeg
  {
    OFFSET -5.27774 -0.967797 -0.811858
    CHANNELS 3 Zrotation Xrotation Yrotation
    JOINT RightUpLegRoll
    {
      OFFSET 0 16.0214 0
      CHANNELS 3 Zrotation Xrotation Yrotation
      JOINT RightLeg
      {
        OFFSET 0 -19.8401 0
        CHANNELS 3 Zrotation Xrotation Yrotation
        JOINT RightLegRoll
        {
          OFFSET 0 19.905 0
          CHANNELS 3 Zrotation Xrotation Yrotation
          JOINT RightFoot
          {
            OFFSET 0 16.5675 0
            CHANNELS 3 Zrotation Xrotation Yrotation
            JOINT RightToeBase
            {
              OFFSET 0 13.8496 0
              CHANNELS 3 Zrotation Xrotation Yrotation
              End Site
              {
                OFFSET 0.00587034 6.70728 -0.773117
              }
            }
          }
        }
      }
    }
  }
  JOINT LeftUpLeg
  {
    OFFSET 5.27774 -0.967797 -0.811858
    CHANNELS 3 Zrotation Xrotation Yrotation
    JOINT LeftUpLegRoll
    {
      OFFSET 0 16.0215 0
      CHANNELS 3 Zrotation Xrotation Yrotation
      JOINT LeftLeg
      {
        OFFSET 0 19.84 0
        CHANNELS 3 Zrotation Xrotation Yrotation
        JOINT LeftLegRoll
        {
          OFFSET 0 20.089 0
          CHANNELS 3 Zrotation Xrotation Yrotation
          JOINT LeftFoot
          {
            OFFSET 0 16.3835 0
            CHANNELS 3 Zrotation Xrotation Yrotation
            JOINT LeftToeBase
            {
              OFFSET 0 13.8496 0
              CHANNELS 3 Zrotation Xrotation Yrotation
              End Site
              {
                OFFSET -0.0263083 6.70728 -0.773116
              }
            }
          }
        }
      }
    }
  }
}
MOTION
Frames: 8
Frame Time: 0.00208333
51.7968 84.3881 4.14547 -1.73761 -7.47803 -1.42883 0.0477025 -0.889225 0.0440842 0.0954617 2.2244 0.0777734 0.0946414 3.86947 0.076446 -2.74666 19.4911 0.496106 7.35889 0.735463 -0.00572377 11.3831 -11.9895 -8.96667 43.7893 11.0392 60.969 -3.18055e-015 3.97569e-015 -0 -31.1905 86.2597 26.4902 -8.6241e-006 -1.05048e-006 -3 8.03011 -4.95138 0.69764 -12.7878 -14.3368 12.3669 -16.6237 19.0878 -76.8127 -3.27248e-006 -2.09951e-006 -2.03739e-006 10.3142 77.0496 -5.52878 3.74332e-006 -1.61222e-006 3 -8.03007 -4.95137 -0.697627 -178.614 -1.7321 2.41452 -180 7.0153e-015 178.853 177.306 9.47906 179.891 1.35904e-006 7.65516e-007 0.12916 -18.8598 68.2711 19.7546 8.13649 25.2327 -3.48774 -177.271 -0.873921 -1.30797 4.54188e-006 -4.6773e-006 -1.13773 -2.28047 -12.6715 0.113808 1.26621e-006 1.71123e-006 -0.221977 20.2559 69.8988 -21.285 -8.13649 25.2327 3.48774 
51.7405 84.389 4.12831 -1.7501 -7.45345 -1.42562 0.0497928 -0.897539 0.0440569 0.0996516 2.20777 0.0775538 0.098835 3.85285 0.0761356 -2.81356 19.5951 0.511708 7.42784 0.645136 -0.00747042 11.5361 -11.9275 -8.86677 44.0587 10.837 60.7713 7.95139e-016 -1.03368e-014 3.18055e-015 -29.9931 86.1117 25.2913 -8.6241e-006 -1.05048e-006 -3 8.03011 -4.95138 0.69764 -13.046 -14.2933 12.2761 -16.7556 19.0335 -76.7177 -3.27248e-006 -2.09951e-006 -2.03739e-006 10.2984 77.0222 -5.51229 3.74332e-006 -1.61222e-006 3 -8.03007 -4.95137 -0.697627 -178.588 -1.71252 2.39399 -180 7.0153e-015 178.854 177.314 9.46051 179.89 1.35904e-006 7.65516e-007 0.129073 -18.8529 68.2632 19.7472 8.13649 25.2327 -3.48774 -177.251 -0.831263 -1.3183 4.54188e-006 -4.6773e-006 -1.1372 -2.2832 -12.6927 0.113253 1.26621e-006 1.71123e-006 -0.222113 20.2606 69.9035 -21.29 -8.13649 25.2327 3.48774 
51.7452 84.3894 4.1167 -1.76302 -7.42878 -1.42226 0.0519626 -0.906002 0.0440326 0.104011 2.19084 0.0773421 0.103198 3.83592 0.075827 -2.88232 19.7009 0.527177 7.50033 0.553816 -0.00980149 11.6908 -11.8648 -8.76615 44.3317 10.6335 60.5697 4.77083e-015 1.15295e-014 3.18055e-015 -28.866 85.9596 24.1627 -8.6241e-006 -1.05048e-006 -3 8.03011 -4.95138 0.69764 -13.3147 -14.2484 12.1823 -16.8846 18.9798 -76.6253 -3.27248e-006 -2.09951e-006 -2.03739e-006 10.2842 76.9971 -5.49741 3.74332e-006 -1.61222e-006 3 -8.03007 -4.95137 -0.697627 -178.562 -1.69331 2.37295 -180 7.01531e-015 178.854 177.322 9.44118 179.889 1.35904e-006 7.65516e-007 0.128986 -18.8459 68.255 19.7397 8.13649 25.2327 -3.48774 -177.229 -0.788089 -1.32921 4.54188e-006 -4.6773e-006 -1.13667 -2.2861 -12.7146 0.112654 1.26621e-006 1.71123e-006 -0.222243 20.2654 69.9083 -21.2951 -8.13649 25.2327 3.48774 
51.7296 84.3876 4.10754 -1.77603 -7.40414 -1.41877 0.0541772 -0.914544 0.0440108 0.108468 2.17376 0.0771408 0.107658 3.81884 0.0755246 -2.95283 19.8078 0.542657 7.57566 0.461839 -0.0125977 11.8462 -11.802 -8.66583 44.609 10.4297 60.3634 7.15625e-015 5.96354e-015 1.59028e-014 -27.7986 85.8026 23.0938 -8.6241e-006 -1.05048e-006 -3 8.03011 -4.95138 0.69764 -13.593 -14.203 12.0872 -17.011 18.9278 -76.5352 -3.27248e-006 -2.09951e-006 -2.03739e-006 10.2714 76.9743 -5.48393 3.74332e-006 -1.61222e-006 3 -8.03007 -4.95137 -0.697627 -178.535 -1.67431 2.35173 -180 7.01531e-015 178.855 177.33 9.42161 179.887 1.35904e-006 7.65516e-007 0.128899 -18.8389 68.247 19.7322 8.13649 25.2327 -3.48774 -177.208 -0.74477 -1.34039 4.54188e-006 -4.6773e-006 -1.13615 -2.28913 -12.7367 0.112028 1.26621e-006 1.71123e-006 -0.222367 20.2702 69.9131 -21.3003 -8.13649 25.2327 3.48774 
51.723 84.3897 4.10899 -1.7888 -7.37966 -1.41518 0.056402 -0.923097 0.0439909 0.112952 2.15665 0.0769524 0.112144 3.80173 0.0752334 -3.02501 19.9151 0.558291 7.65316 0.36954 -0.0157398 12.0011 -11.74 -8.56687 44.8911 10.2265 60.1511 6.36111e-015 -1.19271e-015 1.90833e-014 -26.7823 85.6399 22.0758 -8.6241e-006 -1.05048e-006 -3 8.03011 -4.95138 0.69764 -13.8798 -14.1583 11.9923 -17.1349 18.8784 -76.4468 -3.27248e-006 -2.09951e-006 -2.03739e-006 10.2597 76.9533 -5.4716 3.74332e-006 -1.61222e-006 3 -8.03007 -4.95137 -0.697627 -178.508 -1.65536 2.33065 -180 7.01531e-015 178.856 177.338 9.40231 179.886 1.35904e-006 7.65516e-007 0.128813 -18.8321 68.2391 19.7249 8.13649 25.2327 -3.48774 -177.186 -0.701677 -1.35152 4.54188e-006 -4.6773e-006 -1.13564 -2.29221 -12.7586 0.111393 1.26621e-006 1.71123e-006 -0.222484 20.2748 69.9177 -21.3053 -8.13649 25.2327 3.48774 
51.7252 84.3903 4.10065 -1.80098 -7.35546 -1.41151 0.0586025 -0.931593 0.0439725 0.11739 2.13966 0.0767793 0.116585 3.78474 0.074958 -3.09878 20.0224 0.574223 7.73215 0.277256 -0.0191085 12.1548 -11.6793 -8.4703 45.1787 10.0247 59.9317 -2.38542e-015 7.55382e-015 3.18055e-015 -25.81 85.4707 21.102 -8.6241e-006 -1.05048e-006 -3 8.03011 -4.95138 0.69764 -14.1741 -14.1152 11.8994 -17.2563 18.8325 -76.3597 -3.27248e-006 -2.09951e-006 -2.03739e-006 10.2489 76.9339 -5.46024 3.74332e-006 -1.61222e-006 3 -8.03007 -4.95137 -0.697627 -178.482 -1.6363 2.31001 -180 7.01531e-015 178.856 177.346 9.38385 179.885 1.35904e-006 7.65516e-007 0.128728 -18.8257 68.2317 19.7181 8.13649 25.2327 -3.48774 -177.165 -0.659181 -1.36228 4.54188e-006 -4.6773e-006 -1.13515 -2.29528 -12.78 0.110768 1.26621e-006 1.71123e-006 -0.222591 20.2792 69.9221 -21.31 -8.13649 25.2327 3.48774 
51.7105 84.3917 4.09613 -1.81225 -7.33167 -1.40777 0.0607439 -0.939963 0.0439551 0.121711 2.12292 0.0766242 0.120909 3.768 0.0747032 -3.17403 20.1289 0.590595 7.81195 0.185323 -0.0225846 12.3061 -11.6207 -8.37716 45.4723 9.82531 59.7042 5.56597e-015 -4.77083e-015 1.27222e-014 -24.8762 85.294 20.1665 -8.6241e-006 -1.05048e-006 -3 8.03011 -4.95138 0.69764 -14.4749 -14.0749 11.8099 -17.3755 18.7909 -76.2735 -3.27248e-006 -2.09951e-006 -2.03739e-006 10.2388 76.9159 -5.44962 3.74332e-006 -1.61222e-006 3 -8.03007 -4.95137 -0.697627 -178.458 -1.61699 2.29013 -180 7.01531e-015 178.857 177.354 9.36673 179.884 1.35904e-006 7.65516e-007 0.128644 -18.8199 68.2249 19.7118 8.13649 25.2327 -3.48774 -177.146 -0.617652 -1.37236 4.54188e-006 -4.6773e-006 -1.13468 -2.29826 -12.8004 0.11017 1.26621e-006 1.71123e-006 -0.22269 20.2833 69.9262 -21.3144 -8.13649 25.2327 3.48774 
51.7198 84.3909 4.0939 -1.82226 -7.3084 -1.40401 0.0627917 -0.948139 0.0439381 0.125844 2.10657 0.0764895 0.125044 3.75165 0.0744739 -3.2507 20.2339 0.607552 7.8919 0.0940767 -0.0260488 12.4541 -11.5648 -8.28848 45.7726 9.62914 59.4674 1.03368e-014 -3.97569e-015 2.54444e-014 -23.9764 85.1089 19.2652 -8.6241e-006 -1.05048e-006 -3 8.03011 -4.95138 0.69764 -14.7813 -14.0384 11.7257 -17.4926 18.7545 -76.1878 -3.27248e-006 -2.09951e-006 -2.03739e-006 10.2292 76.8989 -5.43953 3.74332e-006 -1.61222e-006 3 -8.03007 -4.95137 -0.697627 -178.435 -1.59727 2.27134 -180 7.01531e-015 178.857 177.361 9.35148 179.883 1.35904e-006 7.65516e-007 0.12856 -18.8147 68.2189 19.7062 8.13649 25.2327 -3.48774 -177.128 -0.57746 -1.38144 4.54188e-006 -4.6773e-006 -1.13423 -2.3011 -12.8194 0.109618 1.26621e-006 1.71123e-006 -0.222778 20.2869 69.9298 -21.3182 -8.13649 25.2327 3.48774 
